<?xml version="1.0" standalone="no"?>
<svg xmlns="http://www.w3.org/2000/svg" viewBox="0 0 134.52 36" width="134.52" height="36"><g fill="#ff5576" color="#ff5576" transform="translate(0 3.9999999999999982) scale(0.2800001)"><svg width="100.0" height="100.0" x="0.0" y="0.0" viewBox="0 0 100 100"><g><g><path d="M17.261,93.162H82.27c2.56,0,4.646-2.082,4.646-4.644V52.161c0-0.862-0.298-1.621-0.707-2.316    c0.409-0.69,0.707-1.448,0.707-2.31V11.182c0-2.564-2.087-4.647-4.646-4.647H17.261c-2.56,0-4.646,2.083-4.646,4.647v36.353    c0,0.862,0.298,1.62,0.709,2.31c-0.411,0.695-0.709,1.454-0.709,2.316v36.357C12.615,91.08,14.701,93.162,17.261,93.162z     M17.286,11.201h64.96v36.314h-64.96V11.201z M17.286,52.18h64.96v36.318h-64.96C17.286,88.048,17.286,52.59,17.286,52.18z"></path><path d="M62.324,64.855c-1.58,0-2.873,1.286-2.873,2.877c0,1.594,1.292,2.878,2.873,2.878c1.596,0,2.883-1.284,2.883-2.878    C65.207,66.141,63.92,64.855,62.324,64.855z"></path><path d="M36.992,65.346h-5.063v-5.061c0-0.323-0.262-0.588-0.584-0.588h-3.615c-0.324,0-0.585,0.265-0.585,0.588v5.061H22.08    c-0.318,0-0.582,0.261-0.582,0.586v3.616c0,0.321,0.264,0.581,0.582,0.581h5.064v5.065c0,0.318,0.261,0.583,0.585,0.583h3.615    c0.322,0,0.584-0.265,0.584-0.583v-5.065h5.063c0.319,0,0.585-0.26,0.585-0.581v-3.616C37.577,65.607,37.311,65.346,36.992,65.346    z"></path><path d="M68.744,58.441c-1.597,0-2.881,1.286-2.881,2.875c0,1.597,1.284,2.879,2.881,2.879c1.588,0,2.875-1.282,2.875-2.879    C71.619,59.727,70.332,58.441,68.744,58.441z"></path><path d="M68.744,71.269c-1.597,0-2.881,1.284-2.881,2.876c0,1.588,1.284,2.882,2.881,2.882c1.588,0,2.875-1.294,2.875-2.882    C71.619,72.553,70.332,71.269,68.744,71.269z"></path><path d="M75.156,64.855c-1.596,0-2.88,1.286-2.88,2.877c0,1.594,1.284,2.878,2.88,2.878c1.594,0,2.878-1.284,2.878-2.878    C78.034,66.141,76.75,64.855,75.156,64.855z"></path><path d="M68.3,16.678H31.231c-0.634,0-1.158,0.52-1.158,1.161V41.37c0,0.638,0.524,1.157,1.158,1.157H68.3    c0.643,0,1.158-0.519,1.158-1.157V17.839C69.458,17.198,68.942,16.678,68.3,16.678z"></path></g></g></svg></g><path fill="#0b0cac" fill-rule="nonzero" d="M0 20.81L0 0.19L5.45 0.19Q7.92 0.19 8.98 1.79Q10.03 3.38 10.03 6.46L10.03 6.46Q10.03 9.53 9.10 11.09Q8.16 12.65 5.74 12.65L5.74 12.65L4.06 12.65L4.06 20.81L0 20.81ZM4.06 8.93L4.30 8.93Q5.04 8.93 5.39 8.65Q5.74 8.38 5.84 7.86Q5.95 7.34 5.95 6.38L5.95 6.38Q5.95 5.09 5.66 4.51Q5.38 3.94 4.51 3.94L4.51 3.94L4.06 3.94L4.06 8.93ZM19.70 20.81L11.33 20.81L11.33 0.19L15.46 0.19L15.46 17.30L19.70 17.30L19.70 20.81ZM24.31 20.81L20.30 20.81L22.30 0.19L29.28 0.19L31.25 20.81L27.34 20.81L27.05 17.47L24.55 17.47L24.31 20.81ZM25.63 3.70L24.86 14.18L26.74 14.18L25.82 3.70L25.63 3.70ZM38.88 20.81L34.99 20.81L34.99 14.02L31.70 0.19L35.78 0.19L36.94 7.18L38.09 0.19L42.17 0.19L38.88 14.02L38.88 20.81ZM53.06 21Q50.83 21 49.74 19.43Q48.65 17.86 48.65 14.66L48.65 14.66L48.65 5.78Q48.65 2.93 49.92 1.46Q51.19 0 53.71 0L53.71 0Q55.75 0 56.88 0.82Q58.01 1.63 58.44 3.19Q58.87 4.75 58.87 7.20L58.87 7.20L54.84 7.20L54.84 5.35Q54.84 4.61 54.64 4.20Q54.43 3.79 53.90 3.79L53.90 3.79Q52.73 3.79 52.73 5.33L52.73 5.33L52.73 15.31Q52.73 16.25 52.97 16.73Q53.21 17.21 53.81 17.21L53.81 17.21Q54.41 17.21 54.65 16.73Q54.89 16.25 54.89 15.31L54.89 15.31L54.89 12.36L53.78 12.36L53.78 8.81L58.82 8.81L58.82 20.81L57.17 20.81L56.47 19.08Q55.37 21 53.06 21L53.06 21ZM63.91 20.81L59.90 20.81L61.90 0.19L68.88 0.19L70.85 20.81L66.94 20.81L66.65 17.47L64.15 17.47L63.91 20.81ZM65.23 3.70L64.46 14.18L66.34 14.18L65.42 3.70L65.23 3.70ZM75.82 20.81L72.10 20.81L72.10 0.19L78.38 0.19L80.11 12.77L81.84 0.19L88.18 0.19L88.18 20.81L84.41 20.81L84.41 5.95L82.03 20.81L78.34 20.81L75.82 5.95L75.82 20.81ZM98.52 20.81L90 20.81L90 0.19L98.26 0.19L98.26 4.18L94.20 4.18L94.20 8.18L98.09 8.18L98.09 12.07L94.20 12.07L94.20 16.80L98.52 16.80L98.52 20.81Z" transform="translate(36, 7.596)"></path></svg>